<svg width="240" height="170" viewBox="0 0 240 170" fill="none" xmlns="http://www.w3.org/2000/svg">
<g clip-path="url(#clip0_2_2)">
<rect width="240" height="170" fill="black"/>
<path d="M88.7415 59.7074C88.41 56.0615 86.9351 53.2277 84.3168 51.206C81.7315 49.151 78.036 48.1236 73.2301 48.1236C70.0483 48.1236 67.3968 48.5379 65.2756 49.3665C63.1544 50.1951 61.5634 51.3385 60.5028 52.7969C59.4422 54.2221 58.8954 55.8627 58.8622 57.7188C58.7959 59.2434 59.0942 60.5857 59.7571 61.7457C60.4531 62.9058 61.4474 63.9332 62.7401 64.8281C64.0658 65.6899 65.6567 66.4522 67.5128 67.1151C69.3688 67.7779 71.4569 68.358 73.777 68.8551L82.527 70.8438C87.5649 71.9375 92.0062 73.3958 95.8509 75.2188C99.7287 77.0417 102.977 79.2126 105.595 81.7315C108.247 84.2505 110.252 87.1506 111.611 90.4318C112.97 93.7131 113.666 97.392 113.699 101.469C113.666 107.899 112.042 113.417 108.827 118.024C105.612 122.631 100.988 126.161 94.956 128.614C88.9569 131.066 81.715 132.293 73.2301 132.293C64.7121 132.293 57.2879 131.017 50.9574 128.464C44.6269 125.912 39.705 122.035 36.1918 116.831C32.6785 111.627 30.8722 105.048 30.7727 97.0938H54.3381C54.5369 100.375 55.4152 103.109 56.973 105.297C58.5308 107.484 60.6686 109.142 63.3864 110.268C66.1373 111.395 69.3191 111.959 72.9318 111.959C76.2462 111.959 79.0634 111.511 81.3835 110.616C83.7367 109.722 85.5431 108.479 86.8026 106.888C88.062 105.297 88.7083 103.474 88.7415 101.419C88.7083 99.4967 88.1117 97.8561 86.9517 96.4972C85.7917 95.1051 84.0019 93.9119 81.5824 92.9176C79.196 91.8902 76.1468 90.9455 72.4347 90.0838L61.7955 87.598C52.9792 85.5762 46.0355 82.3116 40.9645 77.804C35.8935 73.2633 33.3745 67.1316 33.4077 59.4091C33.3745 53.1117 35.0649 47.5933 38.4787 42.8537C41.8925 38.1141 46.6155 34.4186 52.6477 31.767C58.6799 29.1155 65.5573 27.7898 73.2798 27.7898C81.1681 27.7898 88.0123 29.1321 93.8125 31.8168C99.6458 34.4683 104.17 38.197 107.385 43.0028C110.6 47.8087 112.241 53.3769 112.307 59.7074H88.7415Z" fill="#5995C0"/>
<path d="M207.128 64.071H182.27C181.938 61.5189 181.259 59.2154 180.232 57.1605C179.204 55.1056 177.845 53.349 176.155 51.8906C174.464 50.4323 172.459 49.322 170.139 48.5597C167.852 47.7642 165.317 47.3665 162.533 47.3665C157.594 47.3665 153.335 48.5762 149.756 50.9957C146.209 53.4152 143.475 56.9119 141.553 61.4858C139.663 66.0597 138.719 71.5947 138.719 78.0909C138.719 84.8523 139.68 90.5199 141.602 95.0938C143.558 99.6345 146.292 103.065 149.805 105.385C153.352 107.672 157.545 108.815 162.384 108.815C165.101 108.815 167.571 108.467 169.791 107.771C172.045 107.075 174.017 106.064 175.707 104.739C177.431 103.38 178.839 101.739 179.933 99.8168C181.06 97.8613 181.839 95.6572 182.27 93.2045L207.128 93.3537C206.697 97.8613 205.388 102.303 203.2 106.678C201.046 111.053 198.08 115.046 194.301 118.659C190.523 122.239 185.916 125.089 180.48 127.21C175.078 129.331 168.88 130.392 161.886 130.392C152.672 130.392 144.42 128.37 137.128 124.327C129.869 120.25 124.135 114.317 119.926 106.528C115.717 98.7396 113.612 89.2604 113.612 78.0909C113.612 66.8883 115.75 57.3925 120.026 49.6037C124.301 41.8149 130.085 35.8987 137.376 31.8551C144.668 27.8115 152.838 25.7898 161.886 25.7898C168.051 25.7898 173.752 26.6515 178.989 28.375C184.225 30.0653 188.832 32.5511 192.81 35.8324C196.787 39.0805 200.018 43.0743 202.504 47.8139C204.99 52.5535 206.531 57.9725 207.128 64.071Z" fill="#F1C879" fill-opacity="0.8"/>
<path d="M98.7727 114.318H87.4091C87.2576 113.152 86.947 112.098 86.4773 111.159C86.0076 110.22 85.3864 109.417 84.6136 108.75C83.8409 108.083 82.9242 107.576 81.8636 107.227C80.8182 106.864 79.6591 106.682 78.3864 106.682C76.1288 106.682 74.1818 107.235 72.5455 108.341C70.9242 109.447 69.6742 111.045 68.7955 113.136C67.9318 115.227 67.5 117.758 67.5 120.727C67.5 123.818 67.9394 126.409 68.8182 128.5C69.7121 130.576 70.9621 132.144 72.5682 133.205C74.1894 134.25 76.1061 134.773 78.3182 134.773C79.5606 134.773 80.6894 134.614 81.7045 134.295C82.7348 133.977 83.6364 133.515 84.4091 132.909C85.197 132.288 85.8409 131.538 86.3409 130.659C86.8561 129.765 87.2121 128.758 87.4091 127.636L98.7727 127.705C98.5758 129.765 97.9773 131.795 96.9773 133.795C95.9924 135.795 94.6364 137.621 92.9091 139.273C91.1818 140.909 89.0758 142.212 86.5909 143.182C84.1212 144.152 81.2879 144.636 78.0909 144.636C73.8788 144.636 70.1061 143.712 66.7727 141.864C63.4545 140 60.8333 137.288 58.9091 133.727C56.9848 130.167 56.0227 125.833 56.0227 120.727C56.0227 115.606 57 111.265 58.9545 107.705C60.9091 104.144 63.553 101.439 66.8864 99.5909C70.2197 97.7424 73.9545 96.8182 78.0909 96.8182C80.9091 96.8182 83.5152 97.2121 85.9091 98C88.303 98.7727 90.4091 99.9091 92.2273 101.409C94.0455 102.894 95.5227 104.72 96.6591 106.886C97.7955 109.053 98.5 111.53 98.7727 114.318ZM130.369 111.409C130.218 109.742 129.544 108.447 128.347 107.523C127.165 106.583 125.475 106.114 123.278 106.114C121.824 106.114 120.612 106.303 119.642 106.682C118.672 107.061 117.945 107.583 117.46 108.25C116.975 108.902 116.725 109.652 116.71 110.5C116.68 111.197 116.816 111.811 117.119 112.341C117.438 112.871 117.892 113.341 118.483 113.75C119.089 114.144 119.816 114.492 120.665 114.795C121.513 115.098 122.468 115.364 123.528 115.591L127.528 116.5C129.831 117 131.862 117.667 133.619 118.5C135.392 119.333 136.877 120.326 138.074 121.477C139.286 122.629 140.203 123.955 140.824 125.455C141.445 126.955 141.763 128.636 141.778 130.5C141.763 133.439 141.021 135.962 139.551 138.068C138.081 140.174 135.968 141.788 133.21 142.909C130.468 144.03 127.157 144.591 123.278 144.591C119.384 144.591 115.991 144.008 113.097 142.841C110.203 141.674 107.953 139.902 106.347 137.523C104.741 135.144 103.915 132.136 103.869 128.5H114.642C114.733 130 115.134 131.25 115.847 132.25C116.559 133.25 117.536 134.008 118.778 134.523C120.036 135.038 121.491 135.295 123.142 135.295C124.657 135.295 125.945 135.091 127.006 134.682C128.081 134.273 128.907 133.705 129.483 132.977C130.059 132.25 130.354 131.417 130.369 130.477C130.354 129.598 130.081 128.848 129.551 128.227C129.021 127.591 128.203 127.045 127.097 126.591C126.006 126.121 124.612 125.689 122.915 125.295L118.051 124.159C114.021 123.235 110.847 121.742 108.528 119.682C106.21 117.606 105.059 114.803 105.074 111.273C105.059 108.394 105.831 105.871 107.392 103.705C108.953 101.538 111.112 99.8485 113.869 98.6364C116.627 97.4242 119.771 96.8182 123.301 96.8182C126.907 96.8182 130.036 97.4318 132.688 98.6591C135.354 99.8712 137.422 101.576 138.892 103.773C140.362 105.97 141.112 108.515 141.142 111.409H130.369ZM147.46 144V97.4545H179.915V106.591H158.71V116.136H178.256V125.295H158.71V134.864H179.915V144H147.46Z" fill="#E8EDEF"/>
</g>
<defs>
<clipPath id="clip0_2_2">
<rect width="240" height="170" fill="white"/>
</clipPath>
</defs>
</svg>
